<svg width="186" height="75" viewBox="0 0 186 75" fill="none" xmlns="http://www.w3.org/2000/svg">
<g clip-path="url(#clip0_721_240)">
<mask id="mask0_721_240" style="mask-type:luminance" maskUnits="userSpaceOnUse" x="2" y="27" width="181" height="36">
<path d="M182.227 27.8926H2.32422V62.7574H182.227V27.8926Z" fill="white"/>
</mask>
<g mask="url(#mask0_721_240)">
<path fill-rule="evenodd" clip-rule="evenodd" d="M73.312 55.1642C66.6642 60.1196 57.0248 62.7558 48.7242 62.7558C37.093 62.7558 26.6174 58.4127 18.6891 51.1814C18.0674 50.6124 18.6209 49.8387 19.3693 50.2778C27.9213 55.306 38.4982 58.3339 49.422 58.3339C56.7909 58.3339 64.8907 56.7885 72.3454 53.5951C73.4699 53.1148 74.4132 54.3433 73.312 55.1642Z" fill="#F79C34"/>
<path fill-rule="evenodd" clip-rule="evenodd" d="M76.0801 51.9728C75.2284 50.8723 70.4593 51.4511 68.3155 51.711C67.6665 51.7897 67.5652 51.2168 68.1498 50.8014C71.9561 48.1003 78.1927 48.8799 78.9158 49.7855C79.6447 50.6971 78.7228 57.0129 75.1582 60.027C74.6086 60.4897 74.0863 60.2436 74.3299 59.6313C75.1329 57.6055 76.9298 53.0734 76.0781 51.9728H76.0801Z" fill="#F79C34"/>
<path fill-rule="evenodd" clip-rule="evenodd" d="M68.4673 31.7258V29.1034C68.4693 28.7037 68.7675 28.4379 69.1261 28.4399H80.7671C81.1393 28.4399 81.4395 28.7116 81.4395 29.1014V31.3517C81.4356 31.7297 81.1198 32.2219 80.5624 33.0035L74.5324 41.7015C76.7698 41.6484 79.1378 41.987 81.1725 43.1426C81.6305 43.4025 81.7552 43.7884 81.7903 44.1664V46.966C81.7903 47.3519 81.3732 47.7988 80.9327 47.5665C77.3506 45.6705 72.5952 45.4638 68.633 47.5901C68.2276 47.8086 67.8047 47.3676 67.8047 46.9817V44.32C67.8047 43.8947 67.8125 43.1663 68.2374 42.5166L75.2223 32.3912H69.1397C68.7675 32.3912 68.4693 32.1235 68.4673 31.7297V31.7258ZM26.0038 48.1138H22.4626C22.1254 48.0921 21.8565 47.8362 21.8292 47.5094L21.8331 29.1467C21.8331 28.7805 22.1391 28.4872 22.5172 28.4872H25.8148C26.1597 28.5029 26.4365 28.7667 26.4579 29.1034V31.4994H26.5261C27.3856 29.1802 29.0052 28.0993 31.1861 28.0993C33.3669 28.0993 34.7896 29.1821 35.7817 31.4994C36.6411 29.1802 38.592 28.0993 40.6735 28.0993C42.1625 28.0993 43.7801 28.7175 44.7721 30.1094C45.8967 31.6549 45.6667 33.8954 45.6667 35.8661L45.6628 47.4542C45.6628 47.8204 45.3587 48.1138 44.9807 48.1138H41.4433C41.0867 48.0902 40.808 47.8067 40.808 47.4542V37.7207C40.808 36.9489 40.8723 35.0176 40.7066 34.2832C40.4435 33.0449 39.6503 32.6983 38.6252 32.6983C37.7657 32.6983 36.8731 33.2772 36.5086 34.2045C36.1442 35.1337 36.1792 36.6772 36.1792 37.7207V47.4542C36.1792 47.8204 35.8733 48.1138 35.4971 48.1138H31.9598C31.6031 48.0902 31.3244 47.8067 31.3244 47.4542L31.3205 37.7207C31.3205 35.6732 31.6519 32.6609 29.1397 32.6609C26.6275 32.6609 26.6938 35.5964 26.6938 37.7207V47.4542C26.6918 47.8204 26.3858 48.1138 26.0097 48.1138H26.0038ZM91.4901 31.8478C88.8786 31.8478 88.7129 35.4408 88.7129 37.6813C88.7129 39.9217 88.6798 44.7137 91.457 44.7137C94.2342 44.7137 94.3336 40.849 94.3336 38.4924C94.3336 36.9469 94.2654 35.0924 93.8035 33.6237C93.4079 32.3479 92.6127 31.8459 91.4882 31.8459L91.4901 31.8478ZM91.459 28.0993C96.7152 28.0993 99.5568 32.6609 99.5568 38.455C99.5568 44.2491 96.4171 48.4997 91.459 48.4997C86.5009 48.4997 83.4917 43.94 83.4917 38.2601C83.4917 32.5802 86.3332 28.0993 91.459 28.0993ZM106.374 48.1138H102.845C102.492 48.0902 102.209 47.8067 102.209 47.4542L102.203 29.0857C102.235 28.749 102.527 28.4872 102.884 28.4872H106.168C106.477 28.5029 106.733 28.7155 106.797 28.999V31.8085H106.863C107.855 29.2963 109.243 28.0993 111.689 28.0993C113.275 28.0993 114.831 28.6781 115.823 30.263C116.748 31.7317 116.748 34.2025 116.748 35.9803V47.535C116.709 47.8598 116.421 48.1118 116.07 48.1118H112.521C112.194 48.0921 111.929 47.848 111.89 47.535V37.5651C111.89 35.555 112.122 32.6176 109.676 32.6176C108.816 32.6176 108.023 33.1964 107.625 34.0863C107.128 35.2066 107.062 36.3268 107.062 37.5651V47.4523C107.056 47.8185 106.75 48.1118 106.372 48.1118L106.374 48.1138ZM62.755 48.0685C62.5211 48.2811 62.1839 48.2949 61.9189 48.1512C60.7437 47.1629 60.5312 46.7081 59.8881 45.767C57.945 47.7673 56.5671 48.3678 54.0491 48.3678C51.0672 48.3678 48.748 46.5092 48.748 42.7922C48.748 39.8883 50.3071 37.9136 52.525 36.945C54.4466 36.0925 57.1303 35.9389 59.1845 35.7047V35.24C59.1845 34.3856 59.2508 33.3815 58.7538 32.6452C58.3231 31.9857 57.4948 31.7159 56.7659 31.7159C55.4153 31.7159 54.2147 32.4148 53.9185 33.8639C53.8561 34.1867 53.6242 34.5057 53.3046 34.5234L49.8705 34.1474C49.5802 34.0804 49.2586 33.8461 49.3424 33.3992C50.1239 29.251 53.7918 27.9576 57.1245 27.9241H57.3876C59.0929 27.9458 61.2718 28.4183 62.5991 29.7039C64.3219 31.3301 64.1563 33.4996 64.1563 35.8622V41.4357C64.1563 43.1131 64.8462 43.8475 65.4932 44.7511C65.7213 45.0779 65.77 45.4638 65.4815 45.702C64.7585 46.3143 63.4722 47.4424 62.7667 48.0783L62.7569 48.0705L62.755 48.0685ZM59.1865 39.3469C59.1865 40.7408 59.2196 41.9023 58.5238 43.1426C57.9606 44.1487 57.066 44.7689 56.0721 44.7689C54.7137 44.7689 53.9204 43.7234 53.9204 42.174C53.9204 39.1264 56.6256 38.5731 59.1884 38.5731V39.3488L59.1865 39.3469ZM16.3312 48.0685C16.0974 48.2811 15.7583 48.2949 15.4952 48.1512C14.318 47.1629 14.1075 46.7081 13.4644 45.767C11.5193 47.7673 10.1434 48.3678 7.62533 48.3678C4.64346 48.3678 2.32422 46.5092 2.32422 42.7922C2.32422 39.8883 3.88142 37.9136 6.10126 36.945C8.02292 36.0925 10.7066 35.9389 12.7588 35.7047V35.24C12.7588 34.3856 12.8271 33.3815 12.3281 32.6452C11.8974 31.9857 11.0691 31.7159 10.3402 31.7159C8.98959 31.7159 7.7871 32.4148 7.49281 33.8639C7.43239 34.1867 7.19852 34.5057 6.87694 34.5234L3.44486 34.1474C3.15447 34.0804 2.83289 33.8461 2.9167 33.3992C3.69627 29.251 7.36418 27.9576 10.6988 27.9241H10.9619C12.6672 27.9458 14.8462 28.4183 16.1734 29.7039C17.8962 31.3301 17.7306 33.4996 17.7306 35.8622V41.4357C17.7306 43.1131 18.4205 43.8475 19.0676 44.7511C19.2936 45.0779 19.3443 45.4638 19.0559 45.702C18.3328 46.3143 17.0465 47.4424 16.339 48.0783L16.3312 48.0705V48.0685ZM12.7608 39.3469C12.7608 40.7408 12.7939 41.9023 12.0981 43.1426C11.5349 44.1487 10.6403 44.7689 9.64638 44.7689C8.28797 44.7689 7.49475 43.7234 7.49475 42.174C7.49475 39.1264 10.1999 38.5731 12.7627 38.5731V39.3488L12.7608 39.3469ZM165.164 54.7013V53.3527C165.164 52.9688 165.351 52.7049 165.747 52.7286C166.487 52.8349 167.534 52.9412 168.276 52.7857C169.247 52.5809 169.943 51.8859 170.354 50.935C170.935 49.5943 171.319 48.5134 171.56 47.8047L164.193 29.3672C164.069 29.0542 164.032 28.4734 164.651 28.4734H167.226C167.717 28.4734 167.918 28.7884 168.027 29.0975L173.369 44.0739L178.467 29.0975C178.571 28.7904 178.781 28.4734 179.268 28.4734H181.697C182.311 28.4734 182.278 29.0522 182.155 29.3672L174.846 48.3796C173.901 50.9094 172.64 54.9415 169.802 55.6404C168.38 56.0164 166.585 55.8806 165.53 55.4336C165.265 55.2978 165.162 54.9375 165.162 54.7013H165.164ZM161.728 46.9916C161.728 47.3342 161.449 47.6157 161.108 47.6157H159.292C158.9 47.6157 158.631 47.3302 158.582 46.9916L158.399 45.7434C157.565 46.4561 156.54 47.0841 155.429 47.5212C153.293 48.3599 150.829 48.4977 148.742 47.2022C147.234 46.2671 146.431 44.4361 146.431 42.5501C146.431 41.0892 146.877 39.6422 147.863 38.5909C149.181 37.1537 151.091 36.4488 153.398 36.4488C154.792 36.4488 156.785 36.6142 158.235 37.0926V34.5785C158.235 32.0231 157.171 30.9166 154.363 30.9166C152.217 30.9166 150.574 31.2434 148.29 31.962C147.924 31.9738 147.709 31.6943 147.709 31.3497V29.9165C147.709 29.572 148 29.2392 148.315 29.1388C149.947 28.4202 152.258 27.9733 154.716 27.8906C157.92 27.8906 161.726 28.621 161.726 33.5981V46.9896L161.728 46.9916ZM158.237 43.3218V39.53C157.019 39.1933 155.002 39.0535 154.221 39.0535C152.987 39.0535 151.636 39.3488 150.931 40.1147C150.405 40.6778 150.165 41.4849 150.165 42.2646C150.165 43.2726 150.51 44.2865 151.317 44.7866C152.254 45.4304 153.708 45.3516 155.076 44.9598C156.39 44.5838 157.623 43.9164 158.235 43.3238L158.237 43.3218ZM134.95 30.9757C138.98 30.9757 140.077 34.1769 140.077 37.8427C140.101 40.3135 139.65 42.5166 138.384 43.7786C137.436 44.7236 136.376 44.9795 134.782 44.9795C133.363 44.9795 131.498 44.2314 130.103 43.1919V32.7102C131.554 31.584 133.406 30.9757 134.95 30.9757ZM129.485 55.3588H127.052C126.711 55.3588 126.435 55.0773 126.435 54.7347V29.129C126.435 28.7864 126.713 28.5049 127.052 28.5049H128.914C129.305 28.5049 129.572 28.7904 129.623 29.129L129.818 30.4697C131.562 28.9065 133.807 27.9024 135.945 27.9024C141.936 27.9024 143.907 32.8893 143.907 38.075C143.907 43.623 140.894 48.0823 135.795 48.0823C133.65 48.0823 131.642 47.283 130.099 45.893V54.7347C130.099 55.0773 129.82 55.3588 129.481 55.3588H129.485Z" fill="#333E47"/>
</g>
</g>
<defs>
<clipPath id="clip0_721_240">
<rect width="179.903" height="34.8649" fill="white" transform="translate(2.32422 27.8926)"/>
</clipPath>
</defs>
</svg>
