<svg width="183" height="75" viewBox="0 0 183 75" fill="none" xmlns="http://www.w3.org/2000/svg">
<path d="M140.342 45.2217H140.428L147.652 27.0898H152.729L137.121 63.4414H132.304L138.107 50.7256L127.866 27.0898H132.943L140.342 45.2217ZM115.912 26.2656C119.364 26.2656 122.093 27.2071 124.094 29.0615C126.096 30.9158 127.083 33.5064 127.083 36.7734V52.3447H122.614V48.8418H122.411C120.467 51.7263 117.914 53.1688 114.694 53.1689C111.967 53.1689 109.646 52.3446 107.818 50.6963C106.019 49.1657 105.003 46.8997 105.061 44.5156C105.061 41.8959 106.048 39.8354 107.992 38.2754C109.936 36.7153 112.547 35.9502 115.797 35.9502C118.582 35.9502 120.845 36.4797 122.643 37.4805V36.3916C122.643 34.7727 121.947 33.2413 120.728 32.1816C119.481 31.0633 117.885 30.4453 116.231 30.4453C113.62 30.4454 111.56 31.5638 110.052 33.8008L105.931 31.1816C108.136 27.9145 111.473 26.2657 115.912 26.2656ZM93.7751 15.4336C96.7635 15.3747 99.665 16.5233 101.783 18.6426C106.019 22.6458 106.279 29.3861 102.304 33.7129L101.783 34.2432C99.607 36.333 96.9375 37.3926 93.7751 37.3926H86.0574V52.3447H81.3865V15.4336H93.7751ZM116.523 39.7764C114.637 39.7764 113.041 40.2469 111.764 41.1592C110.517 42.0717 109.878 43.2201 109.878 44.6035C109.878 45.8398 110.458 46.9879 111.416 47.6943C112.46 48.5184 113.737 48.96 115.043 48.9307C117.016 48.9307 118.903 48.1355 120.296 46.7227C121.833 45.251 122.617 43.5142 122.617 41.5127C121.166 40.3353 119.135 39.747 116.523 39.7764ZM86.0583 32.8594H93.8923C95.6334 32.9182 97.3169 32.211 98.5066 30.9453C100.944 28.3845 100.886 24.2645 98.3611 21.792C97.1714 20.6146 95.5754 19.9668 93.8923 19.9668H86.0583V32.8594Z" fill="#3C4043"/>
<path d="M69.9313 34.153C69.9313 32.7107 69.8153 31.2683 69.5832 29.8555H49.8833V38.0089H61.1694C60.7052 40.6286 59.1965 42.9834 56.9915 44.4552V49.7535H63.7225C67.6683 46.0741 69.9313 40.6286 69.9313 34.153Z" fill="#4285F4"/>
<path d="M49.8842 54.8753C55.5127 54.8753 60.2709 52.9914 63.7234 49.7536L56.9924 44.4553C55.1065 45.7504 52.6984 46.4863 49.8842 46.4863C44.4297 46.4863 39.8166 42.7481 38.1629 37.7441H31.2288V43.219C34.7684 50.3717 41.9926 54.8753 49.8842 54.8753Z" fill="#34A853"/>
<path d="M38.1637 37.7453C37.2931 35.1256 37.2931 32.2704 38.1637 29.6212V24.1758H31.2284C28.2396 30.1511 28.2396 37.2154 31.2284 43.1907L38.1637 37.7453Z" fill="#FBBC04"/>
<path d="M49.8842 20.8785C52.8725 20.8196 55.7448 21.9676 57.8918 24.0575L63.8685 17.9939C60.0678 14.4028 55.0775 12.4307 49.8842 12.4896C41.9926 12.4896 34.7684 17.0225 31.2288 24.1752L38.1629 29.6501C39.8166 24.6167 44.4297 20.8785 49.8842 20.8785Z" fill="#EA4335"/>
</svg>
