<svg width="186" height="75" viewBox="0 0 186 75" fill="none" xmlns="http://www.w3.org/2000/svg">
<path d="M180.911 30.0829C180.343 25.6571 178.754 21.6264 175.974 18.6758C173.023 15.8958 168.993 14.3069 164.567 13.7383C160.312 13.1698 157.415 13.3404 157.415 13.3404C157.415 13.3404 154.521 13.2267 150.263 13.7383C145.837 14.3069 141.807 15.8958 138.856 18.6758C136.076 21.6264 134.487 25.6571 133.919 30.0829C133.35 34.3382 133.464 37.2347 133.464 37.2347C133.464 37.2347 133.35 40.1284 133.862 44.3865C134.43 48.8124 136.019 52.8431 138.799 55.7936C141.75 58.5736 145.781 60.1626 150.206 60.7311C154.462 61.2996 157.358 61.1291 157.358 61.1291C157.358 61.1291 160.252 61.2428 164.51 60.7311C168.936 60.1626 172.967 58.5736 175.917 55.7936C178.697 52.8431 180.286 48.8124 180.855 44.3865C181.423 40.1313 181.253 37.2347 181.253 37.2347C181.253 37.2347 181.48 34.341 180.911 30.0829Z" fill="#1E4BC6"/>
<path d="M142.261 30.2528H146.574C147.256 30.2528 147.821 30.3665 148.39 30.5939C148.958 30.8213 149.41 31.1625 149.808 31.5576C150.206 31.9527 150.547 32.4075 150.772 32.976C150.999 33.5445 151.113 34.1102 151.113 34.7355C151.113 35.3609 150.999 35.9265 150.772 36.495C150.545 37.0636 150.203 37.5184 149.808 37.9135C149.413 38.3086 148.902 38.6525 148.39 38.8771C147.878 39.1045 147.256 39.2182 146.574 39.2182H144.643V42.7941H142.315V30.25H142.259L142.261 30.2528ZM144.589 32.4103V37.0067H146.406C146.747 37.0067 147.088 36.9498 147.369 36.8361C147.651 36.7224 147.881 36.5519 148.108 36.3245C148.336 36.0971 148.45 35.8697 148.563 35.5854C148.677 35.3012 148.734 35.0169 148.734 34.6787C148.734 34.3404 148.677 34.0533 148.563 33.7719C148.45 33.4876 148.279 33.2602 148.108 33.0328C147.881 32.8054 147.654 32.6349 147.369 32.5212C147.085 32.4075 146.744 32.3506 146.406 32.3506H144.589V32.4075V32.4103ZM156.508 42.7969C155.883 42.7969 155.317 42.6832 154.692 42.4558C154.123 42.2284 153.558 41.8873 153.103 41.4922C152.648 41.0374 152.253 40.5258 151.969 39.9032C151.684 39.2807 151.514 38.5417 151.514 37.7458C151.514 36.9499 151.628 36.2136 151.912 35.5883C152.196 34.9629 152.594 34.4541 153.046 33.9993C153.498 33.5445 154.066 33.2602 154.635 33.0357C155.26 32.8083 155.826 32.6946 156.508 32.6946C157.19 32.6946 157.813 32.8083 158.325 33.0357C158.893 33.2631 159.345 33.6042 159.743 33.9993V32.6946H162.071V42.7969H159.743V41.3785C159.402 41.8333 158.893 42.1744 158.325 42.4558C157.756 42.6832 157.19 42.7969 156.508 42.7969ZM156.906 40.6963C157.361 40.6963 157.756 40.6395 158.097 40.4689C158.438 40.2984 158.779 40.1278 159.061 39.8435C159.342 39.5593 159.516 39.275 159.686 38.9368C159.857 38.5957 159.914 38.1977 159.914 37.8026C159.914 37.4075 159.857 37.0067 159.686 36.6684C159.516 36.3273 159.345 35.9862 159.061 35.7617C158.777 35.4774 158.492 35.3069 158.097 35.1363C157.699 34.9089 157.301 34.8521 156.906 34.8521C156.511 34.8521 156.11 34.9089 155.715 35.0795C155.317 35.25 155.033 35.4206 154.751 35.7048C154.47 35.9891 154.24 36.2733 154.126 36.6116C153.956 36.9527 153.899 37.3506 153.899 37.7458C153.899 38.1409 153.956 38.5388 154.126 38.8799C154.297 39.221 154.524 39.5621 154.751 39.8464C155.036 40.1306 155.377 40.3012 155.715 40.4717C156.056 40.5855 156.454 40.6992 156.906 40.6992M165.306 32.7543L168.143 39.6218L170.752 32.7543H173.194L167.236 47.3962H164.851L166.952 42.345L162.864 32.7543H165.306Z" fill="white"/>
<path d="M108.055 28.6641V45.634H101.926L97.7277 31.6715H97.614L97.8414 45.634H93.6401V28.6641H99.996L103.97 42.1149H104.027L103.799 28.6641H108.055Z" fill="#1E4BC6"/>
<path d="M19.8591 45.8045L23.0371 28.6641H30.6437L33.8217 45.8045H29.2224L26.8972 30.1962H26.8404L24.4555 45.8045H19.8591Z" fill="#1E4BC6"/>
<path d="M55.9534 28.6641L56.3514 45.8045H52.0392L51.9255 30.3667H51.8118L48.975 45.8045H44.6032L41.7663 30.3667H41.6526L41.5389 45.8045H37.2268L37.6219 28.6641H44.66L46.7607 41.7738H46.8175L48.975 28.6641H55.9534Z" fill="#1E4BC6"/>
<path d="M82.8011 43.1962C83.9921 43.1962 84.3901 42.4002 84.4469 41.9483C84.5038 41.7777 84.5038 41.4935 84.5038 41.2689V28.668H88.8727V40.9847C88.8727 41.3258 88.8159 41.9483 88.8159 42.1188C88.5316 45.2968 85.979 46.3741 82.7982 46.3741C79.6174 46.3741 77.1217 45.3508 76.8403 42.1188C76.8403 41.9483 76.7834 41.3229 76.7834 40.9847V28.668H81.1524V41.3798C81.1524 41.6072 81.1524 41.8346 81.2093 42.062C81.2661 42.4031 81.6072 43.1962 82.7982 43.1962" fill="#1E4BC6"/>
<path d="M12.5936 40.9234C12.7641 41.3213 12.7073 41.887 12.6504 42.1712C12.4799 42.7398 12.1388 43.3054 10.9477 43.3054C9.87041 43.3054 9.24506 42.6801 9.24506 41.7733V40.1275H4.64868V41.4322C4.64868 45.2923 7.65608 46.4265 10.8909 46.4265C14.1257 46.4265 16.5674 45.3492 16.9625 42.5095C17.1899 41.0342 17.0194 40.0706 16.9625 39.6727C16.2235 36.0968 9.69702 35.0194 9.24506 32.9757C9.18821 32.6346 9.18821 32.2934 9.24506 32.0689C9.35876 31.5004 9.75671 30.9347 10.834 30.9347C11.8545 30.9347 12.423 31.5601 12.423 32.4668V33.5442H16.6783V32.3531C16.6783 28.6067 13.3298 28.041 10.888 28.041C7.82379 28.041 5.3252 29.0615 4.87324 31.8443C4.75954 32.5834 4.75954 33.2627 4.93009 34.1724C5.6123 37.7454 11.7408 38.7119 12.5907 40.9262" fill="#1E4BC6"/>
<path d="M68.3839 40.9245C68.5545 41.3224 68.4976 41.8313 68.4408 42.1724C68.3271 42.7409 67.9291 43.3065 66.7949 43.3065C65.6608 43.3065 65.0923 42.6812 65.0923 41.7744V40.1286H60.5527V41.4333C60.5527 45.2366 63.5601 46.3708 66.7381 46.3708C69.916 46.3708 72.3578 45.3475 72.7529 42.5106C72.9803 41.0353 72.8097 40.0717 72.7529 39.7306C72.0138 36.1547 65.6011 35.1342 65.1491 33.1473C65.0354 32.8062 65.0923 32.4651 65.1491 32.2406C65.2628 31.672 65.6608 31.1064 66.6812 31.1064C67.7017 31.1064 68.2702 31.7317 68.2702 32.6385V33.7158H72.5255V32.5248C72.5255 28.8352 69.177 28.2695 66.7921 28.2695C63.7847 28.2695 61.2861 29.2332 60.8341 32.016C60.7204 32.755 60.6636 33.4344 60.891 34.2872C61.5135 37.7494 67.5312 38.713 68.3811 40.9273" fill="#1E4BC6"/>
<path d="M118.611 43.0216C119.859 43.0216 120.257 42.2257 120.371 41.7738C120.428 41.6032 120.428 41.319 120.428 41.1484V38.6527H118.668V36.1541H124.74V40.7505C124.74 41.0916 124.74 41.319 124.683 41.8846C124.399 45.0057 121.676 46.1399 118.611 46.1399C115.547 46.1399 112.878 45.0057 112.594 41.8846C112.537 41.3161 112.537 41.0887 112.537 40.7505V33.5418C112.537 33.2575 112.594 32.6919 112.594 32.4076C112.992 29.1728 115.544 28.1523 118.611 28.1523C121.678 28.1523 124.345 29.1728 124.626 32.4076C124.683 32.9193 124.683 33.5418 124.683 33.5418V34.1103H120.371V33.1467C120.371 33.1467 120.371 32.7487 120.314 32.4645C120.257 32.0665 119.916 31.2166 118.611 31.2166C117.307 31.2166 117.022 32.0665 116.909 32.4645C116.852 32.6919 116.852 32.9761 116.852 33.2604V41.0916C116.852 41.319 116.852 41.5464 116.909 41.7169C116.909 42.2854 117.363 43.0216 118.611 43.0216Z" fill="#1E4BC6"/>
</svg>
