<svg width="184" height="75" viewBox="0 0 184 75" fill="none" xmlns="http://www.w3.org/2000/svg">
<path fill-rule="evenodd" clip-rule="evenodd" d="M34.8596 57.5883H25.2064L17.9677 29.16C17.6241 27.8523 16.8946 26.6962 15.8215 26.1513C13.1435 24.782 10.1925 23.6923 6.97317 23.1426V22.0482H22.5237C24.6699 22.0482 26.2795 23.6923 26.5478 25.6017L30.3036 46.108L39.9521 22.0482H49.337L34.8596 57.5883ZM54.7023 57.5883H45.5857L53.0927 22.0482H62.2093L54.7023 57.5883ZM74.0039 31.8938C74.2722 29.9797 75.8818 28.8852 77.7598 28.8852C80.7108 28.6104 83.9254 29.16 86.6081 30.5245L88.2178 22.8726C85.535 21.7781 82.584 21.2285 79.906 21.2285C71.0576 21.2285 64.619 26.1513 64.619 32.9836C64.619 38.1812 69.1797 40.9103 72.399 42.5544C75.8818 44.1938 77.2232 45.2883 76.9549 46.9277C76.9549 49.3867 74.2722 50.4812 71.5942 50.4812C68.3749 50.4812 65.1556 49.6615 62.2093 48.2922L60.5996 55.9489C63.8189 57.3135 67.3018 57.8631 70.5211 57.8631C80.4425 58.1331 86.6081 53.215 86.6081 45.8332C86.6081 36.5371 74.0039 35.9922 74.0039 31.8938ZM118.514 57.5883L111.276 22.0482H103.501C101.891 22.0482 100.281 23.1426 99.7447 24.782L86.3404 57.5883H95.7253L97.5985 52.3954H109.13L110.203 57.5883H118.514ZM104.842 31.6193L107.52 45.0137H100.013L104.842 31.6193Z" fill="#172B85"/>
<path d="M159.179 18.5938C170.222 18.5938 179.174 27.4393 179.174 38.3506C179.174 49.2619 170.222 58.1074 159.179 58.1074C154.23 58.1073 149.701 56.3286 146.209 53.3848C142.718 56.3283 138.19 58.1073 133.241 58.1074C122.198 58.1074 113.246 49.2619 113.246 38.3506C113.246 27.4393 122.198 18.5938 133.241 18.5938C138.19 18.5939 142.718 20.3714 146.209 23.3145C149.701 20.3711 154.23 18.5938 159.179 18.5938Z" fill="#ED0006"/>
<path d="M159.18 18.5938C170.222 18.5939 179.174 27.4393 179.174 38.3506C179.174 49.2618 170.222 58.1073 159.18 58.1074C154.23 58.1074 149.702 56.3285 146.21 53.3848C150.508 49.7611 153.235 44.3711 153.235 38.3506C153.235 32.3296 150.509 26.9382 146.21 23.3145C149.702 20.3712 154.23 18.5938 159.18 18.5938Z" fill="#F9A000"/>
<path d="M146.209 23.3145C150.508 26.9382 153.235 32.3287 153.235 38.3496C153.235 44.3705 150.508 49.761 146.209 53.3848C141.911 49.761 139.185 44.3702 139.185 38.3496C139.185 32.329 141.911 26.9382 146.209 23.3145Z" fill="#FF5E00"/>
</svg>
