<svg width="186" height="75" viewBox="0 0 186 75" fill="none" xmlns="http://www.w3.org/2000/svg">
<path fill-rule="evenodd" clip-rule="evenodd" d="M181.297 57.6013H179.731V19.5566H181.297V57.6013Z" fill="#231F20"/>
<path fill-rule="evenodd" clip-rule="evenodd" d="M162.355 57.4861H160.789V19.4414H162.355V57.4861Z" fill="#231F20"/>
<path fill-rule="evenodd" clip-rule="evenodd" d="M16.2481 36.4609L17.8248 25.482L19.4236 36.4609H27.1088L30.8466 19.5156H24.8264L23.1725 30.2296L21.5296 19.5156H14.1973L12.5433 29.9435L10.9225 19.5156H4.64868L8.43062 36.4609H16.2481Z" fill="#231F20"/>
<path fill-rule="evenodd" clip-rule="evenodd" d="M33.8567 36.4609H49.1719V32.0523H41.4537V30.0494H48.7309V25.6939H41.4537V23.8712H48.9183V19.5156H33.8567V36.4609Z" fill="#231F20"/>
<path fill-rule="evenodd" clip-rule="evenodd" d="M52.4576 31.013C52.4355 31.225 52.4355 31.4369 52.4355 31.6277C52.4355 34.8599 55.4787 36.7462 61.2233 36.7462C66.9679 36.7462 69.967 34.8069 69.967 31.225C69.967 28.1411 68.1587 27.2192 63.6601 25.7673C61.2564 24.9831 59.8561 25.0255 59.8561 23.8492C59.8561 23.2134 60.2751 22.7471 61.2895 22.7471C62.4803 22.7471 63.0536 23.4995 62.9985 24.6122H69.5039V23.9022C69.5039 20.9137 66.6922 19.1016 61.4879 19.1016C55.7764 19.1016 52.7443 21.2316 52.7443 24.5592C52.7443 26.9436 54.2769 28.3213 57.4414 29.1903C59.7569 29.8261 61.08 30.356 62.0834 30.7799C62.6126 31.0024 62.789 31.5111 62.7118 31.988C62.6126 32.645 62.1936 33.0477 61.1572 33.0477C59.8781 33.0477 59.5143 32.3059 59.5143 31.1508V31.013H52.4686H52.4576Z" fill="#231F20"/>
<path fill-rule="evenodd" clip-rule="evenodd" d="M88.6341 19.5156H71.8745V24.0407H76.5385V36.4609H84.0032V24.0407H88.6341V19.5156Z" fill="#231F20"/>
<path fill-rule="evenodd" clip-rule="evenodd" d="M91.8428 36.4609H107.158V32.0523H99.4397V30.0494H106.651V25.6939H99.4397V23.8712H106.904V19.5156H91.8428V36.4609Z" fill="#231F20"/>
<path fill-rule="evenodd" clip-rule="evenodd" d="M111.822 36.46H119.154V30.4301C119.397 30.4089 119.64 30.4089 119.827 30.4089C121.591 30.4089 121.845 31.0236 122.131 32.8675L122.319 34.118C122.429 34.8704 122.639 35.6546 122.892 36.4706H130.335C130.015 35.2201 129.761 34.2134 129.662 33.4504L129.42 31.6382C129.089 29.1902 128.119 28.2682 126.145 27.8867C128.152 27.4099 129.662 25.958 129.662 23.9233C129.662 20.5321 127.435 19.5254 122.076 19.5254H111.811V36.4706L111.822 36.46ZM119.154 26.2653V23.3087C119.485 23.2875 119.75 23.2875 119.992 23.2875C121.646 23.2875 122.374 23.669 122.374 24.7287C122.374 25.7885 121.448 26.2865 119.695 26.2865C119.529 26.2865 119.342 26.2865 119.154 26.2653Z" fill="#231F20"/>
<path fill-rule="evenodd" clip-rule="evenodd" d="M139.784 26.796L143.721 36.4609H152.244V19.5156H146.488V28.1419L143.235 19.5156H134.018V36.4609H139.784V26.796Z" fill="#231F20"/>
<path fill-rule="evenodd" clip-rule="evenodd" d="M81.4453 47.0042L85.3817 56.669H93.9048V39.7344H88.1382V48.3607L84.8855 39.7344H75.6787V56.669H81.4453V47.0042Z" fill="#231F20"/>
<path fill-rule="evenodd" clip-rule="evenodd" d="M139.96 47.0042L143.897 56.669H152.42V39.7344H146.664V48.3607L143.412 39.7344H134.205V56.669H139.96V47.0042Z" fill="#231F20"/>
<path fill-rule="evenodd" clip-rule="evenodd" d="M52.8658 39.7344V49.9397C52.8658 51.8896 52.9981 53.4262 54.5638 54.8887C56.1846 56.3935 58.5332 56.9657 61.8851 56.9657C68.0487 56.9657 70.9375 54.7509 70.9375 49.9397V39.7344H63.6162V50.2046C63.6162 51.5929 62.9656 52.3453 61.8851 52.3453C60.7494 52.3453 60.154 51.6353 60.154 50.2046V39.7344H52.8547H52.8658Z" fill="#231F20"/>
<path fill-rule="evenodd" clip-rule="evenodd" d="M106.21 39.7344H98.7012V56.669H106.21V39.7344Z" fill="#231F20"/>
<path fill-rule="evenodd" clip-rule="evenodd" d="M119.959 56.9334C126.641 56.9334 130.214 53.8284 130.214 48.074C130.214 42.3196 126.608 39.1934 120.202 39.1934C113.796 39.1934 110.113 42.415 110.113 48.0952C110.113 53.7754 113.719 56.9228 119.959 56.9228V56.9334ZM120.18 43.1356C121.911 43.1356 122.319 44.6086 122.319 47.809C122.319 51.391 121.878 53.023 120.147 53.023C118.416 53.023 118.008 51.4228 118.008 48.1588C118.008 44.7358 118.394 43.1356 120.18 43.1356Z" fill="#231F20"/>
</svg>
