<svg width="16" height="16" viewBox="0 0 16 16" fill="none" xmlns="http://www.w3.org/2000/svg">
<g clip-path="url(#clip0_113_2074)">
<path d="M4.00016 14.6673V2.66732C4.00016 2.3137 4.14064 1.97456 4.39069 1.72451C4.64074 1.47446 4.97987 1.33398 5.3335 1.33398H10.6668C11.0205 1.33398 11.3596 1.47446 11.6096 1.72451C11.8597 1.97456 12.0002 2.3137 12.0002 2.66732V14.6673M4.00016 14.6673H12.0002M4.00016 14.6673H2.66683C2.31321 14.6673 1.97407 14.5268 1.72402 14.2768C1.47397 14.0267 1.3335 13.6876 1.3335 13.334V9.33398C1.3335 8.98036 1.47397 8.64122 1.72402 8.39118C1.97407 8.14113 2.31321 8.00065 2.66683 8.00065H4.00016M12.0002 14.6673H13.3335C13.6871 14.6673 14.0263 14.5268 14.2763 14.2768C14.5264 14.0267 14.6668 13.6876 14.6668 13.334V7.33398C14.6668 6.98036 14.5264 6.64122 14.2763 6.39118C14.0263 6.14113 13.6871 6.00065 13.3335 6.00065H12.0002M6.66683 4.00065H9.3335M6.66683 6.66732H9.3335M6.66683 9.33398H9.3335M6.66683 12.0007H9.3335" stroke="#40D52C" stroke-width="1.5" stroke-linecap="round" stroke-linejoin="round"/>
</g>
<defs>
<clipPath id="clip0_113_2074">
<rect width="16" height="16" fill="white"/>
</clipPath>
</defs>
</svg>
