<svg width="50" height="50" viewBox="0 0 50 50" fill="none" xmlns="http://www.w3.org/2000/svg">
<path d="M30.1372 45.7259H37.4117C38.5142 45.7259 39.5715 45.2879 40.3511 44.5083C41.1306 43.7288 41.5686 42.6715 41.5686 41.569V14.5494L31.1764 4.15723H12.4705C11.3681 4.15723 10.3108 4.59518 9.5312 5.37474C8.75164 6.15431 8.31369 7.21162 8.31369 8.31409V16.6278M29.098 4.15723V12.471C29.098 13.5734 29.536 14.6307 30.3155 15.4103C31.0951 16.1899 32.1524 16.6278 33.2549 16.6278H41.5686M14.549 35.3337V45.7259M14.549 35.3337L24.3177 29.514M14.549 35.3337L4.78046 29.514M6.23517 27.2279C5.59464 27.5976 5.06434 28.1315 4.69898 28.7745C4.33363 29.4176 4.14644 30.1464 4.15674 30.8859V37.62C4.13267 38.3604 4.30687 39.0938 4.66133 39.7442C5.01579 40.3946 5.53761 40.9386 6.17281 41.3196L12.4705 45.1024C13.1079 45.4821 13.8353 45.6842 14.5772 45.6879C15.3192 45.6915 16.0485 45.4966 16.6897 45.1232L22.8626 41.3612C23.5032 40.9915 24.0334 40.4576 24.3988 39.8146C24.7642 39.1715 24.9513 38.4427 24.9411 37.7032V30.9691C24.9651 30.2287 24.7909 29.4954 24.4365 28.8449C24.082 28.1945 23.5602 27.6506 22.925 27.2695L16.6273 23.4867C15.9899 23.107 15.2625 22.9049 14.5205 22.9012C13.7786 22.8976 13.0492 23.0925 12.4081 23.4659L6.23517 27.2279Z" stroke="#40D52C" stroke-width="4" stroke-linecap="round" stroke-linejoin="round"/>
</svg>
