<svg width="203" height="36" viewBox="0 0 203 36" fill="none" xmlns="http://www.w3.org/2000/svg">
    <path d="M111.994 14.2275V14.4938L112.12 14.381C112.075 14.3404 112.03 14.2907 111.994 14.2275ZM111.994 19.2814L112.12 19.1235L111.994 19.0107V19.2814Z" fill="#2A2562"/>
    <path d="M120.567 23.2519C119.241 23.2867 117.925 23.0133 116.723 22.4532C115.7 21.9711 114.842 21.1991 114.255 20.2331C113.666 19.2268 113.368 18.0774 113.393 16.912C113.385 15.7116 113.604 14.5206 114.038 13.4013C114.459 12.3104 115.101 11.3182 115.923 10.4866C116.746 9.65509 117.731 9.00213 118.817 8.56856C120.038 8.08816 121.34 7.85056 122.652 7.86912C123.83 7.84481 125.001 8.0502 126.1 8.47379C127.019 8.83158 127.829 9.42253 128.451 10.1885L126.903 11.5016C126.418 10.9257 125.798 10.4792 125.098 10.2021C124.293 9.90743 123.441 9.76512 122.584 9.7824C121.279 9.74999 119.99 10.0762 118.857 10.7255C117.829 11.3326 116.986 12.2096 116.421 13.2615C115.841 14.3447 115.544 15.557 115.559 16.7856C115.534 17.3969 115.639 18.0064 115.867 18.5742C116.095 19.1419 116.441 19.6549 116.881 20.0797C117.762 20.919 119.077 21.3387 120.825 21.3387C122.022 21.3473 123.198 21.0189 124.218 20.3911L125.184 15.4725H127.246L126.064 21.3793C125.322 21.9974 124.469 22.4677 123.55 22.7646C122.59 23.0904 121.582 23.2551 120.567 23.2519Z" fill="#367D50"/>
    <path d="M129.813 23.0676L132.818 8.03223H134.966L132.326 21.1994H140.489L140.124 23.0676H129.813Z" fill="#367D50"/>
    <path d="M149.532 23.2526C148.216 23.2902 146.91 23.0165 145.719 22.4539C144.712 21.9676 143.871 21.1954 143.3 20.2338C142.727 19.2227 142.438 18.0749 142.466 16.9127C142.457 15.7126 142.674 14.5216 143.106 13.4021C143.525 12.3262 144.154 11.3445 144.956 10.5141C145.773 9.67193 146.757 9.00952 147.844 8.56928C149.036 8.09087 150.31 7.85314 151.594 7.86984C152.916 7.83099 154.229 8.10465 155.425 8.66854C156.433 9.15352 157.275 9.92602 157.844 10.8886C158.418 11.8998 158.706 13.0476 158.679 14.2098C158.688 15.4099 158.47 16.6009 158.038 17.7204C157.619 18.7963 156.99 19.778 156.188 20.6084C155.371 21.4506 154.387 22.113 153.3 22.5532C152.102 23.0325 150.822 23.2702 149.532 23.2526ZM149.726 21.3394C150.692 21.3557 151.651 21.1649 152.537 20.7799C153.347 20.4235 154.075 19.9043 154.676 19.2547C155.27 18.5978 155.73 17.8314 156.03 16.9985C156.341 16.138 156.494 15.2284 156.481 14.3136C156.506 13.7036 156.403 13.0951 156.18 12.5271C155.956 11.9591 155.616 11.4441 155.182 11.015C154.315 10.1817 153.052 9.76355 151.391 9.76054C150.421 9.74424 149.458 9.93501 148.566 10.3201C147.752 10.6729 147.02 11.1924 146.419 11.8453C145.823 12.5011 145.363 13.2678 145.065 14.1015C144.754 14.9619 144.601 15.8715 144.614 16.7864C144.588 17.3966 144.691 18.0053 144.917 18.5729C145.142 19.1405 145.485 19.6541 145.922 20.0804C146.798 20.9107 148.061 21.3304 149.726 21.3304V21.3394Z" fill="#367D50"/>
    <path d="M160.335 23.0676L163.34 8.03223H170C171.505 8.03223 172.672 8.31199 173.502 8.87153C173.907 9.13959 174.235 9.50874 174.453 9.94245C174.672 10.3762 174.773 10.8594 174.747 11.3443C174.78 12.2444 174.499 13.1278 173.953 13.8442C173.435 14.4998 172.753 15.0072 171.977 15.3152C172.599 15.5061 173.144 15.8902 173.534 16.4118C173.93 16.9843 174.129 17.6699 174.102 18.3656C174.139 19.3033 173.851 20.2249 173.285 20.9738C172.69 21.7065 171.895 22.2518 170.998 22.5441C169.895 22.9142 168.736 23.0912 167.573 23.0676H160.335ZM162.826 21.3303H167.722C168.818 21.3937 169.909 21.1315 170.858 20.5767C171.219 20.3408 171.512 20.0149 171.708 19.631C171.904 19.2472 171.997 18.8188 171.977 18.3882C172.006 18.0723 171.946 17.7546 171.803 17.4714C171.66 17.1881 171.44 16.9507 171.169 16.7863C170.443 16.442 169.642 16.2868 168.841 16.335H163.814L162.826 21.3303ZM164.179 14.5617H168.561C169.564 14.6068 170.559 14.3523 171.417 13.8307C171.774 13.5976 172.063 13.2748 172.256 12.8946C172.448 12.5144 172.537 12.0902 172.514 11.6647C172.532 11.3749 172.469 11.0858 172.333 10.8294C172.197 10.573 171.992 10.3592 171.742 10.2117C171.063 9.87191 170.307 9.71631 169.549 9.76046H165.122L164.179 14.5617Z" fill="#367D50"/>
    <path d="M174.264 23.0676L184.101 8.03223H186.231L190.031 23.0676H187.905L187.003 19.3087H178.971L176.584 23.0676H174.264ZM180.063 17.594H186.574L184.769 10.1801L180.063 17.594Z" fill="#367D50"/>
    <path d="M192.274 23.0676L195.284 8.03223H197.432L194.788 21.1994H202.951L202.585 23.0676H192.274Z" fill="#367D50"/>
    <path d="M0 22.9953L6.5701 7.95996H11.5562L18.1354 22.9953H12.8964L11.8856 20.3736H6.17295L5.16217 22.9953H0ZM7.55829 16.7231H10.4643L9.00224 12.9417L7.55829 16.7231Z" fill="#2A2562"/>
    <path d="M18.9431 22.9953V7.95996H24.0015V22.9953H18.9431Z" fill="#2A2562"/>
    <path d="M32.0693 23.3381C30.8372 23.3357 29.6099 23.1842 28.4143 22.8868C27.3973 22.6632 26.4205 22.2859 25.5173 21.7678L27.1508 18.0766C27.9027 18.5085 28.7063 18.8436 29.5424 19.0738C30.3765 19.3183 31.2407 19.4444 32.1099 19.4484C32.6245 19.4823 33.1406 19.4101 33.6261 19.2363C33.7535 19.1941 33.865 19.1141 33.9456 19.0068C34.0262 18.8996 34.0722 18.7702 34.0774 18.6362C34.0738 18.4962 34.0292 18.3603 33.9489 18.2456C33.8687 18.1308 33.7564 18.0422 33.6261 17.9909C33.2483 17.8064 32.8477 17.6729 32.4348 17.5938C31.9429 17.4855 31.4015 17.3682 30.8149 17.2508C30.2143 17.1252 29.6219 16.9624 29.0414 16.7635C28.4641 16.5724 27.9149 16.3053 27.408 15.9693C26.9134 15.6368 26.505 15.1913 26.2167 14.6697C25.8963 14.0502 25.7409 13.3587 25.7654 12.6617C25.7591 11.7528 26.0333 10.8641 26.5506 10.1167C27.1428 9.29628 27.9546 8.65969 28.8926 8.28017C30.1238 7.78758 31.4432 7.55408 32.7687 7.59428C33.779 7.59448 34.7864 7.70188 35.774 7.91467C36.7069 8.11064 37.6055 8.44366 38.4408 8.90289L36.9157 12.576C35.6253 11.8804 34.1891 11.4985 32.7236 11.4614C32.1964 11.4145 31.6661 11.5112 31.1894 11.7412C31.0654 11.8074 30.9612 11.9054 30.8875 12.0252C30.8138 12.1449 30.7731 12.282 30.7697 12.4226C30.777 12.5577 30.8236 12.6877 30.9038 12.7967C30.984 12.9058 31.0942 12.989 31.221 13.0362C31.6007 13.2107 32.0009 13.3366 32.4122 13.4108L34.0457 13.7357C34.6466 13.8448 35.2391 13.9956 35.8191 14.1869C36.391 14.3809 36.9355 14.6478 37.4391 14.9811C37.9335 15.31 38.342 15.7525 38.6303 16.2717C38.951 16.8797 39.1066 17.5611 39.0816 18.2481C39.0852 19.1489 38.8127 20.0292 38.3009 20.7705C37.7097 21.5914 36.9021 22.2319 35.968 22.6206C34.7336 23.1319 33.4049 23.3765 32.0693 23.3381Z" fill="#2A2562"/>
    <path d="M48.3681 23.3382C47.23 23.3498 46.0991 23.1572 45.029 22.7697C44.0413 22.4122 43.1346 21.8615 42.3621 21.1497C41.6135 20.4486 41.0176 19.6006 40.6113 18.6589C39.7809 16.6209 39.7809 14.3388 40.6113 12.3009C41.0164 11.3571 41.6124 10.5075 42.3621 9.80551C43.1346 9.09372 44.0413 8.543 45.029 8.18555C46.0991 7.79797 47.23 7.6054 48.3681 7.61698C49.7139 7.59105 51.0495 7.85419 52.2849 8.38861C53.4013 8.89098 54.3729 9.66702 55.1097 10.6448L51.9104 13.5012C51.5057 12.9798 51.0067 12.5389 50.4394 12.2016C49.8875 11.8961 49.2652 11.7405 48.6344 11.7504C48.1623 11.7317 47.6916 11.8129 47.253 11.9886C46.8145 12.1644 46.4179 12.4307 46.0894 12.7702C45.4558 13.5424 45.1095 14.5104 45.1095 15.5092C45.1095 16.5081 45.4558 17.476 46.0894 18.2482C46.4179 18.5877 46.8145 18.854 47.253 19.0298C47.6916 19.2055 48.1623 19.2867 48.6344 19.268C49.2652 19.2779 49.8875 19.1223 50.4394 18.8168C51.0077 18.4808 51.507 18.0398 51.9104 17.5172L55.1097 20.3736C54.3634 21.3342 53.3937 22.0979 52.2849 22.5982C51.0478 23.1239 49.7118 23.3764 48.3681 23.3382Z" fill="#2A2562"/>
    <path d="M56.4048 22.9953V7.95996H63.4261C65.7305 7.95996 67.4842 8.46836 68.6876 9.48516C69.2847 9.99296 69.7578 10.6307 70.0707 11.3494C70.3835 12.0682 70.5278 12.849 70.4925 13.6321C70.5183 14.6276 70.2616 15.6101 69.7524 16.4659C69.246 17.2803 68.5204 17.9356 67.6587 18.3566L70.8174 22.9953H65.4025L62.8485 19.2139H61.4541V22.9953H56.4048ZM61.4541 15.3919H63.2998C63.8615 15.4379 64.4196 15.2685 64.861 14.9181C65.1829 14.5663 65.3613 14.1067 65.3613 13.6298C65.3613 13.1529 65.1829 12.6934 64.861 12.3415C64.4196 11.9911 63.8615 11.8218 63.2998 11.8677H61.4541V15.3919Z" fill="#2A2562"/>
    <path d="M91.5566 35.9999C91.5566 35.9999 98.1313 30.4586 104.575 35.9999H91.5566Z" fill="#2A2562"/>
    <path d="M88.3487 15.1929L91.9451 14.6514L93.741 15.5178L93.389 16.8941L94.8962 19.8181L94.2554 21.3884L96.3762 26.2709L98.8761 25.4992L100.898 22.9317V22.1285L102.603 19.7865L102.152 18.0538L103.434 16.3526L104.237 16.127L105.618 14.2002V12.9142L103.885 13.7805L100.325 9.4486L100.898 7.5579L97.1434 7.13825L96.5658 7.94147L94.4179 7.13825L94.2554 5.91992L89.9867 6.52909L86.6475 9.76899L86.2639 12.1786L88.3487 15.1929Z" fill="#367D50"/>
    <path d="M103.393 21.5155L105.126 20.3242L104.855 21.5155L103.664 24.0063H103.177L102.906 22.7609L103.393 21.5155Z" fill="#367D50"/>
    <path d="M103.379 29.6781C101.362 30.608 99.17 31.0994 96.9487 31.1197C94.7275 31.14 92.5272 30.6888 90.4932 29.7959C88.4592 28.903 86.6377 27.5887 85.1492 25.9398C83.6606 24.291 82.5389 22.3451 81.8579 20.2306C81.177 18.1162 80.9525 15.8814 81.1991 13.6737C81.4458 11.4661 82.1579 9.33593 83.2887 7.42388C84.4194 5.51183 85.943 3.86145 87.7587 2.58172C89.5744 1.30199 91.6409 0.422037 93.8218 0C88.1226 2.13888 84.0344 7.96894 84.0344 14.8323C84.0344 23.5052 90.5639 30.5355 98.6185 30.5355C100.244 30.5358 101.856 30.2454 103.379 29.6781Z" fill="#2A2562"/>
    <path d="M99.1597 30.4678H97.251V34.4568H99.1597V30.4678Z" fill="#2A2562"/>
    <path d="M110.937 13.0412C110.937 13.0412 95.4554 11.3491 85.1174 16.6872C74.7795 22.0254 84.9279 22.2285 84.9279 22.2285C84.9279 22.2285 80.5329 22.5308 79.2198 20.7078C77.9067 18.8848 92.8607 10.1668 110.937 13.0412Z" fill="#2A2562"/>
    <path d="M82.8069 19.4983C84.028 19.4983 85.0179 18.5084 85.0179 17.2873C85.0179 16.0661 84.028 15.0762 82.8069 15.0762C81.5857 15.0762 80.5957 16.0661 80.5957 17.2873C80.5957 18.5084 81.5857 19.4983 82.8069 19.4983Z" fill="#C7E6D5"/>
    <path d="M82.8074 19.1099C83.8142 19.1099 84.6304 18.2937 84.6304 17.2869C84.6304 16.2801 83.8142 15.4639 82.8074 15.4639C81.8006 15.4639 80.9844 16.2801 80.9844 17.2869C80.9844 18.2937 81.8006 19.1099 82.8074 19.1099Z" fill="#367D50"/>
</svg>
