<svg width="50" height="50" viewBox="0 0 50 50" fill="none" xmlns="http://www.w3.org/2000/svg">
<path d="M45.7254 24.9415C45.7254 36.4204 36.4199 45.7259 24.9411 45.7259M45.7254 24.9415C45.7254 13.4627 36.4199 4.15723 24.9411 4.15723M45.7254 24.9415H4.15674M24.9411 45.7259C13.4622 45.7259 4.15674 36.4204 4.15674 24.9415M24.9411 45.7259C19.6041 40.1221 16.6273 32.6801 16.6273 24.9415C16.6273 17.203 19.6041 9.761 24.9411 4.15723M24.9411 45.7259C30.278 40.1221 33.2548 32.6801 33.2548 24.9415C33.2548 17.203 30.278 9.761 24.9411 4.15723M4.15674 24.9415C4.15674 13.4627 13.4622 4.15723 24.9411 4.15723" stroke="#40D52C" stroke-width="3.11765" stroke-linecap="round" stroke-linejoin="round"/>
</svg>
