<svg width="32" height="36" viewBox="0 0 32 36" fill="none" xmlns="http://www.w3.org/2000/svg">
    <path d="M12.4172 35.9999C12.4172 35.9999 18.9919 30.4586 25.4356 35.9999H12.4172Z" fill="#2A2562"/>
    <path d="M9.2093 15.1929L12.8057 14.6514L14.6016 15.5178L14.2496 16.8941L15.7568 19.8181L15.116 21.3884L17.2368 26.2709L19.7367 25.4992L21.7582 22.9317V22.1285L23.4639 19.7865L23.0127 18.0538L24.2943 16.3526L25.0975 16.127L26.4783 14.2002V12.9142L24.7455 13.7805L21.1851 9.4486L21.7582 7.5579L18.004 7.13825L17.4264 7.94147L15.2785 7.13825L15.116 5.91992L10.8473 6.52909L7.50811 9.76899L7.12451 12.1786L9.2093 15.1929Z" fill="#367D50"/>
    <path d="M24.2539 21.5155L25.9867 20.3242L25.7159 21.5155L24.5247 24.0063H24.0373L23.7666 22.7609L24.2539 21.5155Z" fill="#367D50"/>
    <path d="M24.2396 29.6781C22.2223 30.608 20.0306 31.0994 17.8093 31.1197C15.5881 31.14 13.3878 30.6888 11.3538 29.7959C9.3198 28.903 7.49829 27.5887 6.00975 25.9398C4.52121 24.291 3.39945 22.3451 2.71853 20.2306C2.03762 18.1162 1.81311 15.8814 2.05974 13.6737C2.30636 11.4661 3.01853 9.33593 4.14926 7.42388C5.27999 5.51183 6.80356 3.86145 8.61926 2.58172C10.435 1.30199 12.5015 0.422037 14.6824 0C8.9832 2.13888 4.89498 7.96894 4.89498 14.8323C4.89498 23.5052 11.4245 30.5355 19.4791 30.5355C21.1044 30.5358 22.7166 30.2454 24.2396 29.6781Z" fill="#2A2562"/>
    <path d="M20.0203 30.4678H18.1116V34.4568H20.0203V30.4678Z" fill="#2A2562"/>
    <path d="M31.798 13.0412C31.798 13.0412 16.316 11.3491 5.97802 16.6872C-4.35991 22.0254 5.78854 22.2285 5.78854 22.2285C5.78854 22.2285 1.3935 22.5308 0.0803835 20.7078C-1.23273 18.8848 13.7213 10.1668 31.798 13.0412Z" fill="#2A2562"/>
    <path d="M3.66745 19.4983C4.88859 19.4983 5.87848 18.5084 5.87848 17.2873C5.87848 16.0661 4.88859 15.0762 3.66745 15.0762C2.4463 15.0762 1.4563 16.0661 1.4563 17.2873C1.4563 18.5084 2.4463 19.4983 3.66745 19.4983Z" fill="#C7E6D5"/>
    <path d="M3.668 19.1099C4.67483 19.1099 5.49103 18.2937 5.49103 17.2869C5.49103 16.2801 4.67483 15.4639 3.668 15.4639C2.66118 15.4639 1.84497 16.2801 1.84497 17.2869C1.84497 18.2937 2.66118 19.1099 3.668 19.1099Z" fill="#367D50"/>
</svg>
