<svg width="16" height="16" viewBox="0 0 16 16" fill="none" xmlns="http://www.w3.org/2000/svg">
<g clip-path="url(#clip0_113_2071)">
<path d="M8.66683 1.33398C10.2581 1.33398 11.7843 1.96613 12.9095 3.09134C14.0347 4.21656 14.6668 5.74269 14.6668 7.33398M8.66683 4.00065C9.55088 4.00065 10.3987 4.35184 11.0239 4.97696C11.649 5.60208 12.0002 6.44993 12.0002 7.33398M9.2215 11.046C9.35918 11.1092 9.5143 11.1237 9.66129 11.0869C9.80828 11.0502 9.93839 10.9645 10.0302 10.844L10.2668 10.534C10.391 10.3684 10.5521 10.234 10.7372 10.1414C10.9224 10.0488 11.1265 10.0007 11.3335 10.0007H13.3335C13.6871 10.0007 14.0263 10.1411 14.2763 10.3912C14.5264 10.6412 14.6668 10.9804 14.6668 11.334V13.334C14.6668 13.6876 14.5264 14.0267 14.2763 14.2768C14.0263 14.5268 13.6871 14.6673 13.3335 14.6673C10.1509 14.6673 7.09865 13.403 4.84821 11.1526C2.59778 8.90216 1.3335 5.84992 1.3335 2.66732C1.3335 2.3137 1.47397 1.97456 1.72402 1.72451C1.97407 1.47446 2.31321 1.33398 2.66683 1.33398H4.66683C5.02045 1.33398 5.35959 1.47446 5.60964 1.72451C5.85969 1.97456 6.00016 2.3137 6.00016 2.66732V4.66732C6.00016 4.87431 5.95197 5.07846 5.8594 5.2636C5.76683 5.44874 5.63242 5.60979 5.46683 5.73398L5.15483 5.96798C5.03244 6.06144 4.94618 6.19437 4.91069 6.34422C4.8752 6.49406 4.89268 6.65157 4.96016 6.78998C5.87128 8.64056 7.36978 10.1372 9.2215 11.046Z" stroke="#40D52C" stroke-width="1.5" stroke-linecap="round" stroke-linejoin="round"/>
</g>
<defs>
<clipPath id="clip0_113_2071">
<rect width="16" height="16" fill="white"/>
</clipPath>
</defs>
</svg>
