<svg width="50" height="50" viewBox="0 0 50 50" fill="none" xmlns="http://www.w3.org/2000/svg">
<path d="M29.0982 45.7254V37.4117C29.0982 36.3092 28.6602 35.2519 27.8806 34.4723C27.1011 33.6928 26.0438 33.2548 24.9413 33.2548C23.8388 33.2548 22.7815 33.6928 22.002 34.4723C21.2224 35.2519 20.7844 36.3092 20.7844 37.4117V45.7254M37.4119 20.7842L44.5762 24.3674C44.9214 24.5399 45.2118 24.8051 45.4148 25.1333C45.6178 25.4615 45.7254 25.8397 45.7256 26.2256V41.5685C45.7256 42.671 45.2877 43.7283 44.5081 44.5079C43.7285 45.2874 42.6712 45.7254 41.5687 45.7254H8.31385C7.21138 45.7254 6.15406 45.2874 5.3745 44.5079C4.59494 43.7283 4.15698 42.671 4.15698 41.5685V26.2256C4.15719 25.8397 4.26482 25.4615 4.46782 25.1333C4.67082 24.8051 4.96117 24.5399 5.30635 24.3674L12.4707 20.7842M37.4119 10.3921V45.7254M8.31385 12.4705L23.0832 5.08587C23.6602 4.79755 24.2963 4.64746 24.9413 4.64746C25.5863 4.64746 26.2224 4.79755 26.7994 5.08587L41.5687 12.4705M12.4707 10.3921V45.7254M29.0982 18.7058C29.0982 21.0016 27.2371 22.8627 24.9413 22.8627C22.6455 22.8627 20.7844 21.0016 20.7844 18.7058C20.7844 16.41 22.6455 14.5489 24.9413 14.5489C27.2371 14.5489 29.0982 16.41 29.0982 18.7058Z" stroke="#40D52C" stroke-width="3.11765" stroke-linecap="round" stroke-linejoin="round"/>
</svg>
