<svg width="20" height="20" viewBox="0 0 20 20" fill="none" xmlns="http://www.w3.org/2000/svg">
<path d="M12.8143 13.3581C12.6734 13.4576 12.5122 13.5245 12.3423 13.5539C12.1724 13.5834 11.998 13.5747 11.8319 13.5285C11.6657 13.4823 11.512 13.3997 11.3817 13.2867C11.2514 13.1737 11.1479 13.0332 11.0786 12.8752L10.5286 11.2038C10.3948 10.8017 10.1692 10.4362 9.8697 10.1364C9.57016 9.83665 9.2049 9.61076 8.80288 9.47666L7.20431 8.95738C6.9771 8.87833 6.78063 8.7296 6.64288 8.53238C6.53652 8.38285 6.46725 8.21017 6.44077 8.0286C6.4143 7.84702 6.43139 7.66176 6.49063 7.48809C6.54987 7.31442 6.64956 7.15733 6.78147 7.02978C6.91339 6.90223 7.07375 6.80788 7.24931 6.75452L8.83146 6.24023C9.23369 6.1068 9.59932 5.88151 9.89936 5.58222C10.1994 5.28292 10.4256 4.91785 10.56 4.51595L11.0793 2.91809C11.1592 2.6917 11.3074 2.49575 11.5036 2.35738C11.7009 2.22131 11.935 2.14844 12.1747 2.14844C12.4144 2.14844 12.6484 2.22131 12.8457 2.35738C13.0449 2.49824 13.1949 2.69813 13.2743 2.92881L13.8 4.54666C13.9341 4.93813 14.1555 5.29397 14.4475 5.58726C14.7394 5.88054 15.0942 6.10359 15.485 6.23952L17.085 6.75809C17.3127 6.83857 17.5096 6.98801 17.6484 7.18563C17.7872 7.38324 17.8609 7.6192 17.8594 7.86068C17.8578 8.10215 17.781 8.33713 17.6396 8.53292C17.4983 8.72871 17.2994 8.87558 17.0707 8.95309L15.4879 9.46738C14.9747 9.6396 14.5236 9.95906 14.1907 10.3859C14.0007 10.6309 13.8543 10.9059 13.7579 11.2002L13.2379 12.7959C13.1579 13.0231 13.0093 13.2195 12.8129 13.3581M5.85288 17.7009C5.70751 17.8037 5.53375 17.8586 5.35574 17.8581C5.17894 17.8586 5.00629 17.8045 4.86145 17.7031C4.71234 17.5978 4.60073 17.4477 4.54288 17.2745L4.27717 16.4581C4.22097 16.2886 4.12606 16.1345 3.99998 16.008C3.87389 15.8816 3.72008 15.7862 3.55074 15.7295L2.71788 15.4595C2.54992 15.3999 2.40451 15.2897 2.30157 15.1442C2.19864 14.9987 2.14321 14.8249 2.14288 14.6467C2.14288 14.4637 2.20139 14.2856 2.30986 14.1384C2.41832 13.9911 2.57106 13.8824 2.74574 13.8281L3.56288 13.5638C3.73247 13.5075 3.8866 13.4125 4.01307 13.2863C4.13953 13.1601 4.23485 13.0061 4.29145 12.8367L4.56288 12.0059C4.62142 11.8364 4.73167 11.6895 4.8781 11.5859C5.02453 11.4823 5.19977 11.4273 5.37913 11.4286C5.55849 11.4298 5.73294 11.4873 5.8779 11.5929C6.02286 11.6986 6.13103 11.847 6.18717 12.0174L6.45431 12.8359C6.50906 13.0032 6.60148 13.1557 6.72445 13.2817C6.84742 13.4076 6.99766 13.5036 7.1636 13.5624L7.99645 13.8324C8.1648 13.8918 8.3106 14.002 8.41382 14.1477C8.51703 14.2933 8.5726 14.4674 8.57288 14.6459C8.5727 14.826 8.51581 15.0014 8.41029 15.1474C8.30477 15.2933 8.15598 15.4022 7.98503 15.4588L7.16788 15.7245C6.99765 15.7806 6.843 15.876 6.71643 16.003C6.58987 16.1299 6.49494 16.2848 6.43931 16.4552L6.1686 17.2859C6.10952 17.4538 5.99968 17.5991 5.85431 17.7017" fill="#40D52C"/>
</svg>
